<?xml version="1.0" encoding="UTF-8" standalone="no"?>
<svg
   xmlns:dc="http://purl.org/dc/elements/1.1/"
   xmlns:cc="http://creativecommons.org/ns#"
   xmlns:rdf="http://www.w3.org/1999/02/22-rdf-syntax-ns#"
   xmlns:svg="http://www.w3.org/2000/svg"
   xmlns="http://www.w3.org/2000/svg"
   xmlns:sodipodi="http://sodipodi.sourceforge.net/DTD/sodipodi-0.dtd"
   xmlns:inkscape="http://www.inkscape.org/namespaces/inkscape"
   width="4096"
   height="4096"
   viewBox="0 0 315.81143 315.81143"
   version="1.1"
   id="svg12"
   sodipodi:docname="portuguesa-sp-logo.svg"
   inkscape:version="0.92.2 (5c3e80d, 2017-08-06)"
   inkscape:export-filename="G:\Users\suitedoalex\sites\portuguesa-sp-logo-0.png"
   inkscape:export-xdpi="96"
   inkscape:export-ydpi="96">
  <metadata
     id="metadata18">
    <rdf:RDF>
      <cc:Work
         rdf:about="">
        <dc:format>image/svg+xml</dc:format>
        <dc:type
           rdf:resource="http://purl.org/dc/dcmitype/StillImage" />
        <dc:title></dc:title>
      </cc:Work>
    </rdf:RDF>
  </metadata>
  <defs
     id="defs16" />
  <sodipodi:namedview
     pagecolor="#ffffff"
     bordercolor="#666666"
     borderopacity="1"
     objecttolerance="10"
     gridtolerance="10"
     guidetolerance="10"
     inkscape:pageopacity="0"
     inkscape:pageshadow="2"
     inkscape:window-width="1600"
     inkscape:window-height="837"
     id="namedview14"
     showgrid="false"
     inkscape:zoom="0.0472"
     inkscape:cx="-178.80541"
     inkscape:cy="4378.32"
     inkscape:window-x="-8"
     inkscape:window-y="-8"
     inkscape:window-maximized="1"
     inkscape:current-layer="svg12" />
  <path
     d="M 157.90635,281.71727 C 39.062794,211.67612 56.879182,97.969672 64.808848,55.122988 c 10.045934,18.28416 28.514673,20.43425 40.430312,15.016764 14.84487,-6.750357 22.02778,-21.78826 20.33139,-36.045595 18.40956,22.968979 46.26765,22.964752 64.67018,0.0056 -1.6964,14.257337 5.48792,29.295239 20.33139,36.044192 11.91704,5.418889 30.38296,3.267395 40.43172,-15.016769 7.92684,42.846678 25.74604,156.55454 -93.09749,226.59005 z"
     id="path4"
     style="clip-rule:evenodd;fill:#e31e27;fill-opacity:1;fill-rule:evenodd;stroke-width:1.4089669"
     inkscape:connector-curvature="0"
     inkscape:export-filename="G:\Users\suitedoalex\sites\portuguesa-sp-logo-5.png"
     inkscape:export-xdpi="7.479918"
     inkscape:export-ydpi="7.479918" />
  <path
     d="M 157.90635,267.88404 C 64.363614,211.49999 67.852217,114.95899 73.116117,79.230408 c 22.023559,13.131573 50.753813,-0.01689 60.739153,-22.302534 15.64518,7.921216 32.45697,7.925439 48.10073,0.0042 9.98675,22.285632 38.717,35.434117 60.73916,22.303948 5.2639,35.727178 8.7525,132.266768 -84.78881,188.647998 z"
     id="path6"
     inkscape:connector-curvature="0"
     style="clip-rule:evenodd;fill:#ffffff;fill-rule:evenodd;stroke-width:1.4089669"
     inkscape:export-filename="G:\Users\suitedoalex\sites\portuguesa-sp-logo-5.png"
     inkscape:export-xdpi="7.479918"
     inkscape:export-ydpi="7.479918" />
  <path
     d="m 168.99069,217.26548 v -76.84083 c 8.19455,0.82285 17.35002,2.52487 29.52208,5.10751 l -1.21876,0.22121 c -6.45729,-1.34556 -11.13788,1.40052 -11.9734,4.24099 -0.57063,1.94297 0.62981,3.97893 4.22972,4.89193 3.67881,0.93274 6.3319,-2.35579 10.44044,-1.28075 3.81126,0.99474 6.63342,5.04693 12.18898,6.03179 2.57841,0.45651 6.46575,-0.31702 7.70987,-3.66895 0.80875,-2.18812 0.0606,-4.51574 0.84538,-7.67042 0.95809,-3.85071 3.54214,-3.16735 4.60168,-8.40026 1.15254,-5.21317 -1.48505,-5.64009 -0.79325,-9.54715 0.56641,-3.20117 2.1994,-5.02156 2.34875,-7.35199 0.22684,-3.56751 -3.00955,-5.85426 -5.54992,-6.48548 -5.47806,-1.36106 -9.70355,1.19199 -13.58948,0.55372 -4.19168,-0.69039 -5.27799,-4.77499 -9.0188,-5.41889 -3.65768,-0.6298 -5.58373,0.73971 -5.85144,2.74891 -0.39311,2.93487 2.72917,7.3393 9.1766,8.737 l 1.04123,0.70307 c -14.16858,-3.00532 -24.66537,-4.93702 -34.10686,-5.80072 V 100.1113 l 0.472,1.1638 c 0.0268,6.59678 3.68445,10.56725 6.63764,10.79269 2.01905,0.15499 3.76194,-1.4442 3.90425,-5.15259 0.14794,-3.79294 -3.61964,-5.70491 -3.4252,-9.94871 0.18316,-3.93243 3.55764,-7.536567 3.36743,-13.176661 -0.0888,-2.617856 -1.65272,-6.258636 -5.19063,-6.77713 -2.3093,-0.338156 -4.42979,0.880604 -7.67887,0.767885 -3.96483,-0.136673 -3.8338,-2.805256 -9.17238,-2.761571 -5.33999,-0.05067 -5.20895,2.617857 -9.17378,2.754529 -3.25049,0.111304 -5.36957,-1.10604 -7.67887,-0.767884 -3.53791,0.518493 -5.10047,4.159263 -5.19064,6.77713 -0.19302,5.640093 3.18286,9.242815 3.36602,13.17665 0.19585,4.243812 -3.57314,6.155782 -3.4252,9.947302 0.14513,3.70981 1.88662,5.30899 3.90566,5.15401 2.95179,-0.22544 6.61088,-4.23395 6.63765,-10.83073 l 0.4706,-1.14549 v 17.95587 c -9.4415,0.86651 -19.9383,2.80103 -34.10547,5.80917 l 1.04123,-0.70307 c 6.44744,-1.3977 9.5697,-5.80213 9.17661,-8.73701 -0.26912,-2.00918 -2.19517,-3.3787 -5.85286,-2.74889 -3.73799,0.64389 -4.82711,4.72849 -9.01597,5.41888 -3.88594,0.63827 -8.112834,-1.91478 -13.590902,-0.55372 -2.541776,0.63122 -5.778173,2.91797 -5.548511,6.48548 0.147942,2.32902 1.780934,4.1494 2.347339,7.35199 0.690393,3.90706 -1.947192,4.33398 -0.793249,9.54575 1.059543,5.23431 3.64218,4.55096 4.601689,8.40166 0.7862,3.15609 0.0338,5.4823 0.84679,7.67043 1.24129,3.35052 5.128644,4.12404 7.707054,3.66471 5.55696,-0.98205 8.38053,-5.03283 12.18897,-6.03037 4.10996,-1.07364 6.76445,2.2163 10.44326,1.28215 3.59851,-0.91159 4.79894,-2.94897 4.22831,-4.89192 -0.83411,-2.84048 -5.51469,-5.58656 -11.9734,-4.241 l -1.21876,-0.22121 c 12.17066,-2.58686 21.32613,-4.29029 29.52068,-5.11596 v 76.90564 l -0.534,-1.24411 c -0.0253,-6.59679 -3.62245,-10.56726 -6.57424,-10.79268 -2.01904,-0.15359 -3.76195,1.44136 -3.90566,5.154 -0.14653,3.79152 3.62105,5.7049 3.4252,9.94589 -0.18316,3.93525 -3.55904,7.53797 -3.36602,13.17948 0.0888,2.61645 1.65131,6.25722 5.19064,6.77572 2.30929,0.33815 4.42838,-0.87779 7.67887,-0.76507 3.96483,0.13527 3.83379,2.80385 9.17378,2.75171 5.33858,0.0465 5.20613,-2.62208 9.17238,-2.76016 3.25048,-0.11272 5.37098,1.10603 7.67887,0.76789 3.53791,-0.51991 5.10045,-4.16068 5.19063,-6.77573 0.19162,-5.64432 -3.18427,-9.24564 -3.36744,-13.17947 -0.19584,-4.24382 3.57315,-6.15578 3.42521,-9.94872 -0.14372,-3.70981 -1.88661,-5.30899 -3.90425,-5.15118 -2.95319,0.22544 -6.5996,4.19449 -6.62355,10.78987 z"
     id="path8"
     style="clip-rule:evenodd;fill:#0e773e;fill-opacity:1;fill-rule:evenodd;stroke-width:1.4089669"
     inkscape:connector-curvature="0"
     inkscape:export-filename="G:\Users\suitedoalex\sites\portuguesa-sp-logo-5.png"
     inkscape:export-xdpi="7.479918"
     inkscape:export-ydpi="7.479918" />
  <path
     d="m 160.77359,104.5425 a 2.8672477,2.8672477 0 0 0 -2.86866,-2.72776 c -1.52309,0 -2.78834,1.18917 -2.86583,2.68831 v 21.15422 c -10.65461,0.29589 -21.77137,2.23463 -38.5127,5.81482 -1.47097,0.37619 -2.38961,1.8711 -2.07119,3.37447 0.31702,1.48928 1.74149,2.47978 3.22653,2.24589 16.2158,-3.45761 27.01554,-5.33294 37.35736,-5.62742 v 81.38898 c 0.0789,1.49633 1.34274,2.68832 2.86583,2.68832 1.53578,0 2.80667,-1.21031 2.86866,-2.72777 v -81.35093 c 10.34041,0.29165 21.14015,2.16276 37.35735,5.61473 1.48224,0.2353 2.90811,-0.7538 3.22513,-2.24448 a 2.8658387,2.8658387 0 0 0 -2.07259,-3.37307 c -16.74135,-3.57596 -27.85669,-5.51188 -38.50989,-5.80494 z"
     id="path10"
     inkscape:connector-curvature="0"
     style="clip-rule:evenodd;fill:#ffffff;fill-rule:evenodd;stroke-width:1.4089669"
     inkscape:export-filename="G:\Users\suitedoalex\sites\portuguesa-sp-logo-5.png"
     inkscape:export-xdpi="7.479918"
     inkscape:export-ydpi="7.479918" />
</svg>
